<?xml version="1.0" encoding="utf-8"?>
<!-- Generator: Adobe Illustrator 24.1.1, SVG Export Plug-In . SVG Version: 6.00 Build 0)  -->
<svg version="1.1" id="Layer_1" xmlns="http://www.w3.org/2000/svg" xmlns:xlink="http://www.w3.org/1999/xlink" x="0px" y="0px"
	 viewBox="0 0 512 512" style="enable-background:new 0 0 512 512;" xml:space="preserve">
<g>
	<path d="M437,75C388.7,26.6,324.4,0,256,0S123.3,26.6,75,75C26.6,123.3,0,187.6,0,256s26.6,132.7,75,181c48.3,48.4,112.6,75,181,75
		s132.7-26.6,181-75c48.4-48.3,75-112.6,75-181S485.4,123.3,437,75z M256,485.1C129.7,485.1,26.9,382.3,26.9,256S129.7,27,256,27
		S485.1,129.7,485.1,256S382.3,485.1,256,485.1z"/>
	<path d="M413.7,246.5L305.9,138.7c-5.3-5.3-13.8-5.3-19.1,0s-5.3,13.8,0,19.1l84.8,84.8H94.3c-7.4,0-13.5,6-13.5,13.5
		s6,13.5,13.5,13.5h277.4l-84.8,84.8c-5.3,5.3-5.3,13.8,0,19.1c2.6,2.6,6.1,3.9,9.5,3.9s6.9-1.3,9.5-4l107.8-107.8
		C419,260.3,419,251.7,413.7,246.5L413.7,246.5z"/>
</g>
</svg>
